{"title":"Come Out And Play 2012 DVDSCR AC3-2 0 XviD-AXED","uid":8204116,"size":742241912,"categoryP":"video","categoryS":"movies","magnet":"?xt=urn:btih:c4ed23c08e3ffa5a3fe5a68b6ede3000711bc847&amp;dn=Come+Out+And+Play+2012+DVDSCR+AC3-2+0+XviD-AXED&amp;tr=udp%3A%2F%2Ftracker.openbittorrent.com%3A80&amp;tr=udp%3A%2F%2Fopen.demonii.com%3A1337&amp;tr=udp%3A%2F%2Ftracker.coppersurfer.tk%3A6969&amp;tr=udp%3A%2F%2Fexodus.desync.com%3A6969","seeders":0,"leechers":1,"uploader":".SceNe.","files":3,"time":1362082881,"description":" &lt;a href=&quot;\nhttp://img62.imageshack.us/img62/4889/comeoutposter.jpg&quot; rel=&quot;nofollow&quot; target=&quot;_NEW&quot;&gt;\nhttp://img62.imageshack.us/img62/4889/comeoutposter.jpg&lt;/a&gt;\n\nIMDB: &lt;a href=&quot;\nhttp://www.imdb.com/title/tt2341664&quot; rel=&quot;nofollow&quot; target=&quot;_NEW&quot;&gt;\nhttp://www.imdb.com/title/tt2341664&lt;/a&gt;\n\nPLOT INFO:\nBeth and Francis, a young married couple, are on holiday together when they venture to a beautiful, but highly remote, island. Beth is pregnant and the\n\nMEDIAINFO:\nGeneral\nComplete name: Come.Out.And.Play.2012.DVDSCR.AC3-2.0.XviD-AXED.avi\nFormat: AVI\nFormat/Info: Audio Video Interleave\nFile size: 699 MiB\nDuration: 1h 26mn\nOverall bit rate: 1 126 Kbps\n\nVideo\nID: 0\nFormat: MPEG-4 Visual\nFormat profile: Advanced Simple@L5\nFormat settings, BVOP: 2\nFormat settings, QPel: No\nFormat settings, GMC: No warppoints\nFormat settings, Matrix: Default (H.263)\nMuxing mode: Packed bitstream\nCodec ID: XVID\nCodec ID/Hint: XviD\nDuration: 1h 26mn\nBit rate: 926 Kbps\nWidth: 640 pixels\nHeight: 272 pixels\nDisplay aspect ratio: 2.35:1\nFrame rate: 24.000 fps\nColor space: YUV\nChroma subsampling: 4:2:0\nBit depth: 8 bits\nScan type: Progressive\nCompression mode: Lossy\nBits/(Pixel*Frame): 0.222\nStream size: 575 MiB (82%)\nWriting library: XviD 64\n\nAudio\nID: 1\nFormat: AC-3\nFormat/Info: Audio Coding 3\nMode extension: CM (complete main)\nFormat settings, Endianness: Big\nCodec ID: 2000\nDuration: 1h 26mn\nBit rate mode: Constant\nBit rate: 192 Kbps\nChannel(s): 2 channels\nChannel positions: Front: L R\nSampling rate: 44.1 KHz\nBit depth: 16 bits\nCompression mode: Lossy\nStream size: 119 MiB (17%)\nAlignment: Aligned on interleaves\nInterleave, duration: 70 ms (1.67 video frames)\nInterleave, preload duration: 208 ms\nTitle: comeoutandplay -, 1\n\nSOURCE:\nDVD Screener\n\nNOTES:\nHard coded English subs are included on non English speaking scenes. We decided to go with a 700 MB size on this one as opposed to the normal 1.3 GB due to the source, 2.0 audio, and the short run time of the film. The extra bitrate would not have accomplished anything in this case aside from wasting unneeded space. Enjoy this remake of 'Who can kill a child'\n &lt;a href=&quot;\nhttp://imageshack.us/a/img577/4408/scrncp00009c.png&quot; rel=&quot;nofollow&quot; target=&quot;_NEW&quot;&gt;\nhttp://imageshack.us/a/img577/4408/scrncp00009c.png&lt;/a&gt; &lt;a href=&quot;\nhttp://imageshack.us/a/img4/9197/scrncp00012.png&quot; rel=&quot;nofollow&quot; target=&quot;_NEW&quot;&gt;\nhttp://imageshack.us/a/img4/9197/scrncp00012.png&lt;/a&gt; &lt;a href=&quot;\nhttp://imageshack.us/a/img541/9500/scrncp00016.png&quot; rel=&quot;nofollow&quot; target=&quot;_NEW&quot;&gt;\nhttp://imageshack.us/a/img541/9500/scrncp00016.png&lt;/a&gt; &lt;a href=&quot;\nhttp://imageshack.us/a/img717/7941/scrncp00025.png&quot; rel=&quot;nofollow&quot; target=&quot;_NEW&quot;&gt;\nhttp://imageshack.us/a/img717/7941/scrncp00025.png&lt;/a&gt;\n","torrent":{"xt":"urn:btih:c4ed23c08e3ffa5a3fe5a68b6ede3000711bc847","amp;dn":"Come+Out+And+Play+2012+DVDSCR+AC3-2+0+XviD-AXED","amp;tr":["udp%3A%2F%2Ftracker.openbittorrent.com%3A80","udp%3A%2F%2Fopen.demonii.com%3A1337","udp%3A%2F%2Ftracker.coppersurfer.tk%3A6969","udp%3A%2F%2Fexodus.desync.com%3A6969"],"infoHash":"c4ed23c08e3ffa5a3fe5a68b6ede3000711bc847","infoHashBuffer":{"type":"Buffer","data":[196,237,35,192,142,63,250,90,63,229,166,139,110,222,48,0,113,27,200,71]},"announce":[],"urlList":[]}}